<svg width="19" height="18" viewBox="0 0 19 18" fill="none" xmlns="http://www.w3.org/2000/svg">
<path d="M10.9999 0C6.09191 0 3.00191 1.592 3.20991 2.95C3.26991 3.339 3.43491 4.895 3.64391 6.223C1.23891 7.157 0.441908 8.672 0.548908 9.907C0.675908 11.368 1.98991 12.932 4.87691 13.202C6.52491 13.356 8.50791 12.452 9.79291 10.907C9.63735 10.642 9.57332 10.3331 9.61069 10.0281C9.64806 9.72307 9.78475 9.43881 9.99968 9.21917C10.2146 8.99953 10.4958 8.85671 10.8 8.81274C11.1041 8.76877 11.4143 8.82609 11.6826 8.97587C11.951 9.12564 12.1626 9.35955 12.2848 9.6415C12.407 9.92345 12.4331 10.2378 12.359 10.536C12.2848 10.8343 12.1146 11.0998 11.8746 11.2917C11.6346 11.4837 11.3381 11.5913 11.0309 11.598C9.50191 13.571 7.17291 14.762 4.96691 14.623C5.01791 14.947 5.03691 15.57 5.06291 15.736C5.15291 16.315 7.40991 17.996 10.9999 18C14.5899 17.996 16.8469 16.315 16.9379 15.737C17.0259 15.16 18.5789 4.328 18.7899 2.95C18.9979 1.592 15.9069 0 10.9999 0ZM1.94291 9.785C1.88791 9.142 2.39791 8.287 3.86691 7.646L4.50991 11.72C2.90591 11.407 2.01191 10.571 1.94291 9.785ZM10.9999 5.024C7.40991 5.022 4.86291 3.69 4.86291 3.192C4.86091 2.698 7.40991 1.402 10.9999 1.404C14.5899 1.402 17.1389 2.698 17.1369 3.192C17.1369 3.69 14.5899 5.022 10.9999 5.024Z" fill="#1574F6"/>
</svg>
