<svg width="23" height="22" viewBox="0 0 23 22" fill="none" xmlns="http://www.w3.org/2000/svg">
<path d="M13.1999 0.200195C7.31029 0.200195 3.60229 2.1106 3.85189 3.7402C3.92389 4.207 4.12189 6.0742 4.37269 7.6678C1.48669 8.7886 0.53029 10.6066 0.65869 12.0886C0.81109 13.8418 2.38789 15.7186 5.85229 16.0426C7.82989 16.2274 10.2095 15.1426 11.7515 13.2886C11.5648 12.9706 11.488 12.5999 11.5328 12.2339C11.5777 11.8679 11.7417 11.5268 11.9996 11.2632C12.2575 10.9996 12.595 10.8282 12.96 10.7755C13.325 10.7227 13.6971 10.7915 14.0192 10.9712C14.3412 11.151 14.5951 11.4317 14.7418 11.77C14.8884 12.1083 14.9197 12.4855 14.8308 12.8434C14.7418 13.2013 14.5376 13.52 14.2496 13.7503C13.9616 13.9806 13.6058 14.1097 13.2371 14.1178C11.4023 16.4854 8.60749 17.9146 5.96029 17.7478C6.02149 18.1366 6.04429 18.8842 6.07549 19.0834C6.18349 19.7782 8.89189 21.7954 13.1999 21.8002C17.5079 21.7954 20.2163 19.7782 20.3255 19.0846C20.4311 18.3922 22.2947 5.3938 22.5479 3.7402C22.7975 2.1106 19.0883 0.200195 13.1999 0.200195ZM2.33149 11.9422C2.26549 11.1706 2.87749 10.1446 4.64029 9.3754L5.41189 14.2642C3.48709 13.8886 2.41429 12.8854 2.33149 11.9422ZM13.1999 6.229C8.89189 6.2266 5.83549 4.6282 5.83549 4.0306C5.83309 3.4378 8.89189 1.8826 13.1999 1.885C17.5079 1.8826 20.5667 3.4378 20.5643 4.0306C20.5643 4.6282 17.5079 6.2266 13.1999 6.229Z" fill="#C1C7D2"/>
</svg>
